# xmcd
#
# Track frame offsets:
#        150
#        17755
#        40667
#
# Disc length: 904 seconds
#
# Revision: 0
# Processed by: cddbd v1.5.1PL0 Copyright (c) Steve Scherf et al.
# Submitted via: ExactAudioCopy v0.95a5
#
DISCID=18038603
DTITLE=HAL FROM APOLLO '69 - SWEET THING
DYEAR=1994
DGENRE=Avantgarde
TTITLE0=SWEET THING
TTITLE1=COSMIC GROOVE
TTITLE2=INSECTS
EXTD=
EXTT0=
EXTT1=
EXTT2=
PLAYORDER=
